<svg xmlns="http://www.w3.org/2000/svg" width="1280" height="1060" viewBox="0 0 1280 1060"><rect width="1280" height="1060" fill="#f2efe6"/>
<text x="42" y="59" fill="#183b3e" font-family="Noto Sans CJK KR, sans-serif" font-size="34">강남 수로도시 — 대표 구간 제작자 배치도 v2</text>
<text x="44" y="98" fill="#567174" font-family="Noto Sans CJK KR, sans-serif" font-size="21">시험안 · 건물 군집 / 시장 골목 / 열린 수변 / 배경 도시를 함께 배치</text>
<polygon points="460.0,165.0 1064.8,460.2 661.6,657.0 56.8,361.8" fill="#dfdbc9" stroke="#183b3e" stroke-width="2"/>
<polygon points="535.6,128.1 1140.4,423.3 1064.8,460.2 460.0,165.0" fill="#bcc9c2" stroke="#567174" stroke-width="2"/>
<polygon points="576.8,162.9 540.6,180.6 540.6,163.6 576.8,145.9" fill="#a7b0a6" stroke="#183b3e" stroke-width="2"/>
<polygon points="540.6,180.6 501.2,161.3 501.2,144.3 540.6,163.6" fill="#c4c9bc" stroke="#183b3e" stroke-width="2"/>
<polygon points="537.3,126.7 576.8,145.9 540.6,163.6 501.2,144.3" fill="#344f53" stroke="#183b3e" stroke-width="2"/>
<polygon points="631.4,189.6 595.2,207.2 595.2,190.2 631.4,172.6" fill="#a7b0a6" stroke="#183b3e" stroke-width="2"/>
<polygon points="595.2,207.2 555.8,188.0 555.8,171.0 595.2,190.2" fill="#c4c9bc" stroke="#183b3e" stroke-width="2"/>
<polygon points="591.9,153.3 631.4,172.6 595.2,190.2 555.8,171.0" fill="#344f53" stroke="#183b3e" stroke-width="2"/>
<polygon points="686.0,216.2 649.8,233.9 649.8,216.9 686.0,199.2" fill="#a7b0a6" stroke="#183b3e" stroke-width="2"/>
<polygon points="649.8,233.9 610.4,214.6 610.4,197.6 649.8,216.9" fill="#c4c9bc" stroke="#183b3e" stroke-width="2"/>
<polygon points="646.5,180.0 686.0,199.2 649.8,216.9 610.4,197.6" fill="#344f53" stroke="#183b3e" stroke-width="2"/>
<polygon points="740.6,242.9 704.4,260.5 704.4,243.5 740.6,225.9" fill="#a7b0a6" stroke="#183b3e" stroke-width="2"/>
<polygon points="704.4,260.5 665.0,241.3 665.0,224.3 704.4,243.5" fill="#c4c9bc" stroke="#183b3e" stroke-width="2"/>
<polygon points="701.1,206.6 740.6,225.9 704.4,243.5 665.0,224.3" fill="#344f53" stroke="#183b3e" stroke-width="2"/>
<polygon points="795.2,269.6 759.0,287.2 759.0,270.2 795.2,252.6" fill="#a7b0a6" stroke="#183b3e" stroke-width="2"/>
<polygon points="759.0,287.2 719.6,267.9 719.6,250.9 759.0,270.2" fill="#c4c9bc" stroke="#183b3e" stroke-width="2"/>
<polygon points="755.7,233.3 795.2,252.6 759.0,270.2 719.6,250.9" fill="#344f53" stroke="#183b3e" stroke-width="2"/>
<polygon points="849.8,296.2 813.6,313.8 813.6,296.8 849.8,279.2" fill="#a7b0a6" stroke="#183b3e" stroke-width="2"/>
<polygon points="813.6,313.8 774.2,294.6 774.2,277.6 813.6,296.8" fill="#c4c9bc" stroke="#183b3e" stroke-width="2"/>
<polygon points="810.3,259.9 849.8,279.2 813.6,296.8 774.2,277.6" fill="#344f53" stroke="#183b3e" stroke-width="2"/>
<polygon points="904.4,322.9 868.2,340.5 868.2,323.5 904.4,305.9" fill="#a7b0a6" stroke="#183b3e" stroke-width="2"/>
<polygon points="868.2,340.5 828.8,321.2 828.8,304.2 868.2,323.5" fill="#c4c9bc" stroke="#183b3e" stroke-width="2"/>
<polygon points="864.9,286.6 904.4,305.9 868.2,323.5 828.8,304.2" fill="#344f53" stroke="#183b3e" stroke-width="2"/>
<polygon points="959.0,349.5 922.8,367.1 922.8,350.1 959.0,332.5" fill="#a7b0a6" stroke="#183b3e" stroke-width="2"/>
<polygon points="922.8,367.1 883.4,347.9 883.4,330.9 922.8,350.1" fill="#c4c9bc" stroke="#183b3e" stroke-width="2"/>
<polygon points="919.5,313.2 959.0,332.5 922.8,350.1 883.4,330.9" fill="#344f53" stroke="#183b3e" stroke-width="2"/>
<polygon points="1013.6,376.1 977.4,393.8 977.4,376.8 1013.6,359.1" fill="#a7b0a6" stroke="#183b3e" stroke-width="2"/>
<polygon points="977.4,393.8 938.0,374.5 938.0,357.5 977.4,376.8" fill="#c4c9bc" stroke="#183b3e" stroke-width="2"/>
<polygon points="974.1,339.9 1013.6,359.1 977.4,376.8 938.0,357.5" fill="#344f53" stroke="#183b3e" stroke-width="2"/>
<polygon points="1068.2,402.8 1032.0,420.4 1032.0,403.4 1068.2,385.8" fill="#a7b0a6" stroke="#183b3e" stroke-width="2"/>
<polygon points="1032.0,420.4 992.6,401.2 992.6,384.2 1032.0,403.4" fill="#c4c9bc" stroke="#183b3e" stroke-width="2"/>
<polygon points="1028.7,366.5 1068.2,385.8 1032.0,403.4 992.6,384.2" fill="#344f53" stroke="#183b3e" stroke-width="2"/>
<polygon points="1122.8,429.4 1086.6,447.1 1086.6,430.1 1122.8,412.4" fill="#a7b0a6" stroke="#183b3e" stroke-width="2"/>
<polygon points="1086.6,447.1 1047.2,427.8 1047.2,410.8 1086.6,430.1" fill="#c4c9bc" stroke="#183b3e" stroke-width="2"/>
<polygon points="1083.3,393.2 1122.8,412.4 1086.6,430.1 1047.2,410.8" fill="#344f53" stroke="#183b3e" stroke-width="2"/>
<polygon points="292.0,247.0 896.8,542.2 861.5,559.4 256.7,264.2" fill="#78b5c3" stroke="#183b3e" stroke-width="2"/>
<polygon points="695.2,279.8 727.1,295.4 559.1,377.4 527.2,361.8" fill="#78b5c3" stroke="#183b3e" stroke-width="2"/>
<polygon points="396.2,294.6 429.8,311.0 387.8,331.5 354.2,315.1" fill="#b29c76" stroke="#183b3e" stroke-width="2"/>
<polygon points="597.8,393.0 639.8,413.5 597.8,434.0 555.8,413.5" fill="#b29c76" stroke="#183b3e" stroke-width="2"/>
<polygon points="791.0,487.3 824.6,503.7 782.6,524.2 749.0,507.8" fill="#b29c76" stroke="#183b3e" stroke-width="2"/>
<polygon points="619.6,312.6 659.9,332.3 626.3,348.7 586.0,329.0" fill="#b29c76" stroke="#183b3e" stroke-width="2"/>
<polygon points="440.7,260.5 574.2,325.7 522.2,351.1 388.6,285.9" fill="#eee6cd" stroke="#183b3e" stroke-width="2"/>
<polygon points="527.2,406.9 612.9,448.7 566.7,471.3 481.0,429.4" fill="#eee6cd" stroke="#183b3e" stroke-width="2"/>
<polygon points="849.8,429.0 966.5,486.0 882.5,527.0 765.8,470.0" fill="#c6cfba" stroke="#183b3e" stroke-width="2"/>
<polygon points="672.5,514.7 742.2,548.8 620.4,608.2 550.7,574.2" fill="#e8e2cd" stroke="#183b3e" stroke-width="2"/>
<polygon points="519.6,203.9 477.6,224.4 477.6,202.4 519.6,181.9" fill="#a7b0a6" stroke="#183b3e" stroke-width="2"/>
<polygon points="477.6,224.4 420.5,196.6 420.5,174.6 477.6,202.4" fill="#c4c9bc" stroke="#183b3e" stroke-width="2"/>
<polygon points="462.5,154.1 519.6,181.9 477.6,202.4 420.5,174.6" fill="#344f53" stroke="#183b3e" stroke-width="2"/>
<polygon points="581.8,234.3 539.8,254.8 539.8,232.8 581.8,212.3" fill="#a7b0a6" stroke="#183b3e" stroke-width="2"/>
<polygon points="539.8,254.8 487.7,229.4 487.7,207.4 539.8,232.8" fill="#c4c9bc" stroke="#183b3e" stroke-width="2"/>
<polygon points="529.7,186.9 581.8,212.3 539.8,232.8 487.7,207.4" fill="#344f53" stroke="#183b3e" stroke-width="2"/>
<polygon points="644.8,265.0 602.8,285.5 602.8,263.5 644.8,243.0" fill="#a7b0a6" stroke="#183b3e" stroke-width="2"/>
<polygon points="602.8,285.5 550.7,260.1 550.7,238.1 602.8,263.5" fill="#c4c9bc" stroke="#183b3e" stroke-width="2"/>
<polygon points="592.7,217.6 644.8,243.0 602.8,263.5 550.7,238.1" fill="#344f53" stroke="#183b3e" stroke-width="2"/>
<polygon points="458.3,233.9 418.8,253.2 418.8,231.2 458.3,211.9" fill="#a7b0a6" stroke="#183b3e" stroke-width="2"/>
<polygon points="418.8,253.2 364.2,226.5 364.2,204.5 418.8,231.2" fill="#c4c9bc" stroke="#183b3e" stroke-width="2"/>
<polygon points="403.7,185.2 458.3,211.9 418.8,231.2 364.2,204.5" fill="#344f53" stroke="#183b3e" stroke-width="2"/>
<polygon points="494.4,249.1 456.6,267.5 456.6,245.5 494.4,227.1" fill="#a7b0a6" stroke="#183b3e" stroke-width="2"/>
<polygon points="456.6,267.5 428.9,254.0 428.9,232.0 456.6,245.5" fill="#c4c9bc" stroke="#183b3e" stroke-width="2"/>
<polygon points="466.7,213.5 494.4,227.1 456.6,245.5 428.9,232.0" fill="#344f53" stroke="#183b3e" stroke-width="2"/>
<polygon points="587.7,292.9 552.4,310.1 552.4,288.1 587.7,270.9" fill="#a7b0a6" stroke="#183b3e" stroke-width="2"/>
<polygon points="552.4,310.1 504.5,286.8 504.5,264.8 552.4,288.1" fill="#c4c9bc" stroke="#183b3e" stroke-width="2"/>
<polygon points="539.8,247.6 587.7,270.9 552.4,288.1 504.5,264.8" fill="#344f53" stroke="#183b3e" stroke-width="2"/>
<polygon points="402.9,261.8 374.3,275.7 374.3,253.7 402.9,239.8" fill="#a7b0a6" stroke="#183b3e" stroke-width="2"/>
<polygon points="374.3,275.7 317.2,247.8 317.2,225.8 374.3,253.7" fill="#c4c9bc" stroke="#183b3e" stroke-width="2"/>
<polygon points="345.8,211.9 402.9,239.8 374.3,253.7 317.2,225.8" fill="#344f53" stroke="#183b3e" stroke-width="2"/>
<polygon points="788.4,337.6 738.0,362.2 738.0,340.2 788.4,315.6" fill="#a7b0a6" stroke="#183b3e" stroke-width="2"/>
<polygon points="738.0,362.2 691.0,339.2 691.0,317.2 738.0,340.2" fill="#c4c9bc" stroke="#183b3e" stroke-width="2"/>
<polygon points="741.4,292.6 788.4,315.6 738.0,340.2 691.0,317.2" fill="#344f53" stroke="#183b3e" stroke-width="2"/>
<polygon points="852.3,368.8 801.9,393.4 801.9,371.4 852.3,346.8" fill="#a7b0a6" stroke="#183b3e" stroke-width="2"/>
<polygon points="801.9,393.4 749.8,368.0 749.8,346.0 801.9,371.4" fill="#c4c9bc" stroke="#183b3e" stroke-width="2"/>
<polygon points="800.2,321.4 852.3,346.8 801.9,371.4 749.8,346.0" fill="#344f53" stroke="#183b3e" stroke-width="2"/>
<polygon points="915.3,399.5 864.9,424.1 864.9,402.1 915.3,377.5" fill="#a7b0a6" stroke="#183b3e" stroke-width="2"/>
<polygon points="864.9,424.1 815.3,399.9 815.3,377.9 864.9,402.1" fill="#c4c9bc" stroke="#183b3e" stroke-width="2"/>
<polygon points="865.7,353.3 915.3,377.5 864.9,402.1 815.3,377.9" fill="#344f53" stroke="#183b3e" stroke-width="2"/>
<polygon points="1026.2,451.2 988.4,469.6 988.4,447.6 1026.2,429.2" fill="#a7b0a6" stroke="#183b3e" stroke-width="2"/>
<polygon points="988.4,469.6 897.6,425.4 897.6,403.4 988.4,447.6" fill="#c4c9bc" stroke="#183b3e" stroke-width="2"/>
<polygon points="935.4,384.9 1026.2,429.2 988.4,447.6 897.6,403.4" fill="#344f53" stroke="#183b3e" stroke-width="2"/>
<polygon points="803.6,406.5 775.8,420.0 775.8,398.0 803.6,384.5" fill="#a7b0a6" stroke="#183b3e" stroke-width="2"/>
<polygon points="775.8,420.0 730.5,397.9 730.5,375.9 775.8,398.0" fill="#c4c9bc" stroke="#183b3e" stroke-width="2"/>
<polygon points="758.2,362.4 803.6,384.5 775.8,398.0 730.5,375.9" fill="#344f53" stroke="#183b3e" stroke-width="2"/>
<polygon points="859.0,433.6 831.3,447.1 831.3,425.1 859.0,411.6" fill="#a7b0a6" stroke="#183b3e" stroke-width="2"/>
<polygon points="831.3,447.1 780.9,422.5 780.9,400.5 831.3,425.1" fill="#c4c9bc" stroke="#183b3e" stroke-width="2"/>
<polygon points="808.6,387.0 859.0,411.6 831.3,425.1 780.9,400.5" fill="#344f53" stroke="#183b3e" stroke-width="2"/>
<polygon points="624.6,382.3 603.6,392.6 603.6,370.6 624.6,360.3" fill="#a7b0a6" stroke="#183b3e" stroke-width="2"/>
<polygon points="603.6,392.6 575.9,379.0 575.9,357.0 603.6,370.6" fill="#c4c9bc" stroke="#183b3e" stroke-width="2"/>
<polygon points="596.9,346.8 624.6,360.3 603.6,370.6 575.9,357.0" fill="#344f53" stroke="#183b3e" stroke-width="2"/>
<polygon points="733.8,433.1 708.6,445.4 708.6,423.4 733.8,411.1" fill="#a7b0a6" stroke="#183b3e" stroke-width="2"/>
<polygon points="708.6,445.4 658.2,420.8 658.2,398.8 708.6,423.4" fill="#c4c9bc" stroke="#183b3e" stroke-width="2"/>
<polygon points="683.4,386.5 733.8,411.1 708.6,423.4 658.2,398.8" fill="#344f53" stroke="#183b3e" stroke-width="2"/>
<polygon points="786.8,459.0 761.6,471.3 761.6,449.3 786.8,437.0" fill="#a7b0a6" stroke="#183b3e" stroke-width="2"/>
<polygon points="761.6,471.3 721.2,451.6 721.2,429.6 761.6,449.3" fill="#c4c9bc" stroke="#183b3e" stroke-width="2"/>
<polygon points="746.4,417.3 786.8,437.0 761.6,449.3 721.2,429.6" fill="#344f53" stroke="#183b3e" stroke-width="2"/>
<polygon points="318.9,315.1 276.9,335.6 276.9,313.6 318.9,293.1" fill="#a7b0a6" stroke="#183b3e" stroke-width="2"/>
<polygon points="276.9,335.6 206.3,301.1 206.3,279.1 276.9,313.6" fill="#c4c9bc" stroke="#183b3e" stroke-width="2"/>
<polygon points="248.3,258.6 318.9,293.1 276.9,313.6 206.3,279.1" fill="#344f53" stroke="#183b3e" stroke-width="2"/>
<polygon points="272.7,350.7 229.0,372.1 229.0,350.1 272.7,328.7" fill="#a7b0a6" stroke="#183b3e" stroke-width="2"/>
<polygon points="229.0,372.1 145.0,331.1 145.0,309.1 229.0,350.1" fill="#c4c9bc" stroke="#183b3e" stroke-width="2"/>
<polygon points="188.7,287.7 272.7,328.7 229.0,350.1 145.0,309.1" fill="#344f53" stroke="#183b3e" stroke-width="2"/>
<polygon points="472.6,437.7 436.5,455.3 436.5,433.3 472.6,415.7" fill="#a7b0a6" stroke="#183b3e" stroke-width="2"/>
<polygon points="436.5,455.3 354.2,415.1 354.2,393.1 436.5,433.3" fill="#c4c9bc" stroke="#183b3e" stroke-width="2"/>
<polygon points="390.3,375.5 472.6,415.7 436.5,433.3 354.2,393.1" fill="#344f53" stroke="#183b3e" stroke-width="2"/>
<polygon points="556.6,478.7 520.5,496.3 520.5,474.3 556.6,456.7" fill="#a7b0a6" stroke="#183b3e" stroke-width="2"/>
<polygon points="520.5,496.3 449.1,461.4 449.1,439.4 520.5,474.3" fill="#c4c9bc" stroke="#183b3e" stroke-width="2"/>
<polygon points="485.2,421.8 556.6,456.7 520.5,474.3 449.1,439.4" fill="#344f53" stroke="#183b3e" stroke-width="2"/>
<polygon points="657.4,499.2 619.6,517.6 619.6,495.6 657.4,477.2" fill="#a7b0a6" stroke="#183b3e" stroke-width="2"/>
<polygon points="619.6,517.6 565.0,490.9 565.0,468.9 619.6,495.6" fill="#c4c9bc" stroke="#183b3e" stroke-width="2"/>
<polygon points="602.8,450.5 657.4,477.2 619.6,495.6 565.0,468.9" fill="#344f53" stroke="#183b3e" stroke-width="2"/>
<polygon points="626.3,534.8 590.2,552.5 590.2,530.5 626.3,512.8" fill="#a7b0a6" stroke="#183b3e" stroke-width="2"/>
<polygon points="590.2,552.5 514.6,515.5 514.6,493.5 590.2,530.5" fill="#c4c9bc" stroke="#183b3e" stroke-width="2"/>
<polygon points="550.7,475.9 626.3,512.8 590.2,530.5 514.6,493.5" fill="#344f53" stroke="#183b3e" stroke-width="2"/>
<polygon points="817.0,564.8 743.1,600.8 743.1,578.8 817.0,542.8" fill="#a7b0a6" stroke="#183b3e" stroke-width="2"/>
<polygon points="743.1,600.8 696.9,578.3 696.9,556.3 743.1,578.8" fill="#c4c9bc" stroke="#183b3e" stroke-width="2"/>
<polygon points="770.8,520.2 817.0,542.8 743.1,578.8 696.9,556.3" fill="#344f53" stroke="#183b3e" stroke-width="2"/>
<polygon points="376.0,486.4 353.3,497.5 353.3,475.5 376.0,464.4" fill="#a7b0a6" stroke="#183b3e" stroke-width="2"/>
<polygon points="353.3,497.5 284.4,463.9 284.4,441.9 353.3,475.5" fill="#c4c9bc" stroke="#183b3e" stroke-width="2"/>
<polygon points="307.1,430.8 376.0,464.4 353.3,475.5 284.4,441.9" fill="#344f53" stroke="#183b3e" stroke-width="2"/>
<polygon points="466.7,530.7 444.0,541.8 444.0,519.8 466.7,508.7" fill="#a7b0a6" stroke="#183b3e" stroke-width="2"/>
<polygon points="444.0,541.8 372.6,506.9 372.6,484.9 444.0,519.8" fill="#c4c9bc" stroke="#183b3e" stroke-width="2"/>
<polygon points="395.3,473.9 466.7,508.7 444.0,519.8 372.6,484.9" fill="#344f53" stroke="#183b3e" stroke-width="2"/>
<polygon points="440.7,263.0 454.1,269.6 443.2,274.9 429.8,268.3" fill="#b99160" stroke="#183b3e" stroke-width="2"/>
<polygon points="457.5,272.0 471.8,279.0 460.8,284.3 446.6,277.3" fill="#b99160" stroke="#183b3e" stroke-width="2"/>
<polygon points="476.0,281.0 489.4,287.6 478.5,292.9 465.0,286.4" fill="#b99160" stroke="#183b3e" stroke-width="2"/>
<polygon points="506.2,294.1 520.5,301.1 509.6,306.5 495.3,299.5" fill="#b99160" stroke="#183b3e" stroke-width="2"/>
<polygon points="523.8,303.6 539.0,311.0 527.2,316.7 512.1,309.3" fill="#b99160" stroke="#183b3e" stroke-width="2"/>
<polygon points="535.6,320.8 549.9,327.8 537.3,333.9 523.0,327.0" fill="#b99160" stroke="#183b3e" stroke-width="2"/>
<polygon points="525.5,410.2 537.3,415.9 526.4,421.2 514.6,415.5" fill="#b99160" stroke="#183b3e" stroke-width="2"/>
<polygon points="580.1,450.8 591.9,456.5 576.8,463.9 565.0,458.2" fill="#b99160" stroke="#183b3e" stroke-width="2"/>
<polygon points="720.4,503.7 734.7,510.6 722.1,516.8 707.8,509.8" fill="#b99160" stroke="#183b3e" stroke-width="2"/>
<polygon points="671.7,588.1 687.6,595.9 676.7,601.2 660.8,593.5" fill="#b99160" stroke="#183b3e" stroke-width="2"/>
<polygon points="604.5,538.9 613.7,543.4 599.4,550.4 590.2,545.9" fill="#b99160" stroke="#183b3e" stroke-width="2"/>
<polygon points="858.2,507.8 880.0,518.4 875.0,520.9 853.1,510.2" fill="#b9b8a6" stroke="#183b3e" stroke-width="2"/>
<polygon points="858.2,512.7 880.0,523.3 875.0,525.8 853.1,515.1" fill="#b9b8a6" stroke="#183b3e" stroke-width="2"/>
<polygon points="858.2,517.6 880.0,528.3 875.0,530.7 853.1,520.1" fill="#b9b8a6" stroke="#183b3e" stroke-width="2"/>
<polygon points="864.9,525.0 888.4,536.5 833.8,563.1 810.3,551.6" fill="#b29c76" stroke="#183b3e" stroke-width="2"/>
<polygon points="829.6,525.8 840.5,531.1 790.1,555.7 779.2,550.4" fill="#566f66" stroke="#183b3e" stroke-width="2"/>
<polyline points="644.8,583.2 754.0,529.9 754.0,521.7 846.4,476.6 779.2,443.8 670.0,390.5 544.0,435.6 493.6,427.4 376.0,370.0 346.6,335.1 443.2,288.0 510.4,320.8 623.8,331.1 699.4,368.0 670.0,390.5" fill="none" stroke="#286c62" stroke-width="5"/>
<polyline points="376.0,370.0 275.2,419.2 527.2,542.2 644.8,583.2" fill="none" stroke="#286c62" stroke-width="5"/>
<polyline points="846.4,476.6 892.6,499.2 867.4,511.4" fill="none" stroke="#286c62" stroke-width="5"/>
<polyline points="443.2,288.0 413.8,273.6 430.6,265.4 388.6,244.9" fill="none" stroke="#a56736" stroke-width="5" stroke-dasharray="9 9"/>
<polyline points="661.6,525.8 745.6,566.8 661.6,607.8 577.6,566.8 661.6,525.8" fill="none" stroke="#41708b" stroke-width="3" stroke-dasharray="9 9"/>
<circle cx="644.8" cy="583.2" r="10" fill="#bd6b3b"/>
<circle cx="644.8" cy="583.2" r="6" fill="#183b3e"/>
<polyline points="644.8,583.2 880.0,694.0" fill="none" stroke="#567174" stroke-width="2"/>
<text x="890" y="700" fill="#183b3e" font-family="Noto Sans CJK KR, sans-serif" font-size="23">동문 입장</text>
<circle cx="455.8" cy="294.15" r="6" fill="#183b3e"/>
<polyline points="455.8,294.1 35.0,262.0" fill="none" stroke="#567174" stroke-width="2"/>
<text x="45" y="268" fill="#183b3e" font-family="Noto Sans CJK KR, sans-serif" font-size="23">시장 골목 + 작은 장터</text>
<circle cx="632.2" cy="335.15" r="6" fill="#183b3e"/>
<polyline points="632.2,335.1 740.0,222.0" fill="none" stroke="#567174" stroke-width="2"/>
<text x="750" y="228" fill="#183b3e" font-family="Noto Sans CJK KR, sans-serif" font-size="23">상점 사이 연결교</text>
<circle cx="548.2" cy="437.65000000000003" r="6" fill="#183b3e"/>
<polyline points="548.2,437.7 750.0,587.0" fill="none" stroke="#567174" stroke-width="2"/>
<text x="760" y="593" fill="#183b3e" font-family="Noto Sans CJK KR, sans-serif" font-size="23">열린 운하 수변</text>
<circle cx="443.2" cy="435.6" r="6" fill="#183b3e"/>
<polyline points="443.2,435.6 60.0,659.0" fill="none" stroke="#567174" stroke-width="2"/>
<text x="70" y="665" fill="#183b3e" font-family="Noto Sans CJK KR, sans-serif" font-size="23">연속 창고 + 하역 흔적</text>
<circle cx="888.4000000000001" cy="484.8" r="6" fill="#183b3e"/>
<polyline points="888.4,484.8 935.0,162.0" fill="none" stroke="#567174" stroke-width="2"/>
<text x="945" y="168" fill="#183b3e" font-family="Noto Sans CJK KR, sans-serif" font-size="23">수문 앞 마당 · 목적지</text>
<circle cx="602.8" cy="201.9" r="6" fill="#183b3e"/>
<polyline points="602.8,201.9 35.0,127.0" fill="none" stroke="#567174" stroke-width="2"/>
<text x="45" y="133" fill="#183b3e" font-family="Noto Sans CJK KR, sans-serif" font-size="23">배경 도시 · 통행 불가</text>
<circle cx="388.6" cy="244.95" r="6" fill="#183b3e"/>
<polyline points="388.6,244.9 35.0,467.0" fill="none" stroke="#567174" stroke-width="2"/>
<text x="45" y="473" fill="#183b3e" font-family="Noto Sans CJK KR, sans-serif" font-size="23">폐수문 관리길 후보*</text>
<polyline points="42.0,740.0 1235.0,740.0" fill="none" stroke="#b2bdb4" stroke-width="2"/>
<text x="44" y="784" fill="#183b3e" font-family="Noto Sans CJK KR, sans-serif" font-size="21">지면 시험 범위 7200 × 4800 · 기존 도식 3200 × 2200에서 장소 단위를 확장</text>
<text x="44" y="826" fill="#183b3e" font-family="Noto Sans CJK KR, sans-serif" font-size="21">녹색: 왕복 동선   청색 점선: 입장 첫 시야 후보   청회색 외곽: 배경 전용</text>
<text x="44" y="868" fill="#183b3e" font-family="Noto Sans CJK KR, sans-serif" font-size="21">진회색: 건물 군집   황토색 소형 면: 상점·하역 소품   파랑: 통행 불가 물</text>
<text x="44" y="910" fill="#183b3e" font-family="Noto Sans CJK KR, sans-serif" font-size="21">동문 돌길 → 건물 사이 시장 → 시야가 열리는 수변 → 수문 마당</text>
<text x="44" y="952" fill="#183b3e" font-family="Noto Sans CJK KR, sans-serif" font-size="21">통과 시간은 캐릭터 속도·대시로 재측정. 면적 확대만으로 체험 밀도를 판정하지 않음.</text>
<text x="44" y="994" fill="#183b3e" font-family="Noto Sans CJK KR, sans-serif" font-size="21">*히든 표시는 제작자용. 철학 반영 전 시험안 · 실제 게임 구현/카메라 검증 전</text>
</svg>